v -0.5 0.5 -0.5
v -0.5 0.5 0.5
v 0.5 0.5 0.5
v 0.5 0.5 -0.5
v -0.5 -0.5 -0.5
v -0.5 -0.5 0.5
v 0.5 -0.5 0.5
v 0.5 -0.5 -0.5

# Top left
vt 0 1
# Bottom left
vt 0 0.5
# Bottom right
vt 0.5 0.5
# Top right
vt 0.5 1
vt 1 0.5
vt 1 1

vn -1 0 0
vn 1 0 0
vn 0 -1 0
vn 0 1 0
vn 0 0 -1
vn 0 0 1

# Faces (vertex/texcoord/normal)
# -X face
f 6/4/1 2/3/1 1/5/1
f 6/4/1 1/5/1 5/6/1
# +X face
f 8/4/2 4/3/2 3/5/2
f 8/4/2 3/5/2 7/6/2
# -Z face
f 5/4/5 1/3/5 4/5/5
f 5/4/5 4/5/5 8/6/5

# +Z face
f 7/3/6 3/4/6 2/1/6
f 7/3/6 2/1/6 6/2/6

# +Y face
f 3/4/4 4/3/4 1/5/4
f 3/4/4 1/5/4 2/6/4
# -Y face
f 8/4/3 7/3/3 6/5/3
f 8/4/3 6/5/3 5/6/3
